<?xml version="1.0" encoding="UTF-8" standalone="no"?>
<svg
   version="1.1"
   width="1547.7928"
   height="429.71945"
   viewBox="0 0 1547.7929 429.71944"
   id="svg220"
   sodipodi:docname="DDM Brand Guidelines.svg"
   xml:space="preserve"
   inkscape:version="1.4.4 (dcaf3e7d9e, 2026-05-05)"
   xmlns:inkscape="http://www.inkscape.org/namespaces/inkscape"
   xmlns:sodipodi="http://sodipodi.sourceforge.net/DTD/sodipodi-0.dtd"
   xmlns="http://www.w3.org/2000/svg"
   xmlns:svg="http://www.w3.org/2000/svg"><sodipodi:namedview
     id="namedview220"
     pagecolor="#ffffff"
     bordercolor="#000000"
     borderopacity="0.25"
     inkscape:showpageshadow="2"
     inkscape:pageopacity="0.0"
     inkscape:pagecheckerboard="0"
     inkscape:deskcolor="#d1d1d1"
     showguides="false"
     inkscape:zoom="0.26585485"
     inkscape:cx="1055.087"
     inkscape:cy="306.55825"
     inkscape:window-width="1920"
     inkscape:window-height="1131"
     inkscape:window-x="0"
     inkscape:window-y="0"
     inkscape:window-maximized="1"
     inkscape:current-layer="svg220"><inkscape:page
       x="0"
       y="0"
       width="1547.7928"
       height="429.71945"
       id="page2"
       margin="0"
       bleed="0" /></sodipodi:namedview><defs
     id="defs22"><g
       id="mask_1_contents"><rect
         x="0"
         y="0"
         width="100%"
         height="100%"
         fill-opacity="0"
         id="rect1" /><g
         id="g3"><clipPath
           id="clip_2"><path
             transform="matrix(1,0,0,-1,0,6084)"
             d="M 0,0 H 1920 V 6084 H 0 Z"
             id="path1" /></clipPath><g
           clip-path="url(#clip_2)"
           id="g2"><path
             transform="matrix(1,0,0,-1,0,6084)"
             d="M 0,6084 H 1920 V 0 H 0 Z"
             id="path2" /></g></g></g><g
       id="mask_17_contents"><rect
         x="0"
         y="0"
         width="100%"
         height="100%"
         fill-opacity="0"
         id="rect7" /><g
         id="g10"><clipPath
           id="clip_18"><path
             transform="matrix(1,0,0,-1,0,6084)"
             d="M 0,0 H 1920 V 6084 H 0 Z"
             id="path8" /></clipPath><g
           clip-path="url(#clip_18)"
           id="g9"><path
             transform="matrix(1,0,0,-1,1161,4213)"
             d="M 0,287 H 502 V 0 H 0 Z"
             id="path9" /></g></g></g><g
       id="mask_29_contents"><rect
         x="0"
         y="0"
         width="100%"
         height="100%"
         fill-opacity="0"
         id="rect13" /><g
         id="g15"><clipPath
           id="clip_30"><path
             transform="matrix(1,0,0,-1,0,6084)"
             d="M 0,0 H 1920 V 6084 H 0 Z"
             id="path13" /></clipPath><g
           clip-path="url(#clip_30)"
           id="g14"><path
             transform="matrix(1,0,0,-1,1161,4559)"
             d="M 0,287 H 502 V 0 H 0 Z"
             id="path14" /></g></g></g><g
       id="mask_34_contents"><rect
         x="0"
         y="0"
         width="100%"
         height="100%"
         fill-opacity="0"
         id="rect16" /><g
         id="g19"><clipPath
           id="clip_35"><path
             transform="matrix(1,0,0,-1,0,6084)"
             d="M 0,0 H 1920 V 6084 H 0 Z"
             id="path17" /></clipPath><g
           clip-path="url(#clip_35)"
           id="g18"><path
             transform="matrix(1,0,0,-1,330,4663)"
             d="M 0,842 H 595 V 0 H 0 Z"
             id="path18" /></g></g></g></defs><path
     style="fill:#bff53d;fill-opacity:1"
     d="M 0,329.1914 V 228.7166 l 143.88686,-0.4937 143.88686,-0.4937 3.52197,-4.35 c 4.71446,-5.8229 4.49143,-13.9507 -0.5107,-18.6109 -3.98671,-3.7142 -5.66653,-3.757 -147.40883,-3.757 H 0 V 100.5057 3.3912994e-7 L 125.75815,0.64780033 C 248.59227,1.2805003 251.85417,1.3897003 266.04699,5.3420003 307.9947,17.023301 338.49809,34.870701 368.28135,65.158901 c 79.8922,81.246499 81.26073,211.770899 3.10059,295.720299 -23.21637,24.936 -58.31359,47.4648 -89.46256,57.4258 -31.91417,10.2057 -28.74417,9.9935 -159.84645,10.7017 L 0,429.6662 Z m 443.07164,98.0004 c -0.48498,-1.2668 -0.66625,-46.2496 -0.40282,-99.9617 l 0.47897,-97.6583 143.72361,-0.9496 c 79.04798,-0.5222 143.8986,-1.1441 144.11248,-1.3819 0.21388,-0.2378 2.07952,-2.2471 4.14587,-4.4651 4.70547,-5.0507 4.78838,-10.8687 0.23505,-16.4926 l -3.52195,-4.35 L 587.49532,201.0113 443.14779,200.09 V 100.5891 1.0881003 h 125.2975 125.29751 l 18.09812,5.0588 C 750.8133,17.040401 780.33152,34.092201 808.17584,61.796601 851.93915,105.34 872.29945,154.0019 872.20615,214.8309 c -0.09,58.5925 -20.7472,109.0985 -61.45759,150.2607 -32.92931,33.2948 -75.17081,54.7418 -121.60463,61.7417 -24.01157,3.6197 -244.70065,3.9412 -246.07229,0.3585 z m 443.22391,-110.884 c 0,-68.7231 0.7606,-118.8494 1.936,-127.6008 11.8906,-88.5267 74.0557,-159.634399 159.29245,-182.2070997 14.5911,-3.864 24.1788,-5.0737 46.0653,-5.81189997 41.806,-1.41 71.3263,4.91449997 106.0496,22.72060067 8.6689,4.4454 16.7248,8.0826 17.902,8.0826 1.1772,0 7.4602,-2.9242 13.9621,-6.4981 14.0203,-7.7065 36.522,-16.1442007 55.0802,-20.6540007 20.5666,-4.99779997 76.1519,-4.51409997 96.4635,0.8395 67.1027,17.6861007 120.4571,62.1883007 146.3951,122.1059997 17.7437,40.9887 18.351,47.1248 18.351,185.446 V 429.495 H 1447.3705 1346.9482 V 285.903 c 0,-157.3571 0.713,-147.1015 -10.5238,-151.3737 -5.1055,-1.9411 -14.1074,1.8239 -15.9707,6.6797 -0.6296,1.6406 -1.1446,67.1831 -1.1446,145.65 v 142.6672 l -101.8043,-0.4762 -101.8042,-0.4763 -0.4718,-143.9088 c -0.4637,-141.4259 -0.5356,-143.9665 -4.1696,-147.2553 -5.0738,-4.5916 -13.9931,-4.264 -18.9542,0.6964 l -4.0435,4.0428 -0.5044,143.6731 -0.5043,143.6731 H 986.67415 886.29555 Z"
     id="path220"
     inkscape:export-filename="public/brand/logo green.png"
     inkscape:export-xdpi="96"
     inkscape:export-ydpi="96" /></svg>
